<mxfile host="app.diagrams.net" modified="2023-06-14T17:16:27.979Z" agent="Mozilla/5.0 (Windows NT 10.0; Win64; x64) AppleWebKit/537.36 (KHTML, like Gecko) Chrome/114.0.0.0 Safari/537.36" version="21.3.4" etag="-YPwDXkAiXF1M7PjgIcW" type="github">
  <diagram name="Page-1" id="jpkzh9pf_NLnFSNhKnxH">
    <mxGraphModel>
      <root>
        <mxCell id="0" />
        <mxCell id="1" parent="0" />
      </root>
    </mxGraphModel>
  </diagram>
</mxfile>
